<?xml version="1.0" encoding="utf-8"?>
<!-- Generator: Adobe Illustrator 28.3.0, SVG Export Plug-In . SVG Version: 6.00 Build 0)  -->
<svg version="1.1" id="Layer_1" xmlns="http://www.w3.org/2000/svg" xmlns:xlink="http://www.w3.org/1999/xlink" x="0px" y="0px"
	 viewBox="0 0 323.4 295.3" style="enable-background:new 0 0 323.4 295.3;" xml:space="preserve">
<style type="text/css">
	.st0{fill:#3e63dd;}
	.st1{fill:url(#SVGID_1_);}
	.st2{fill:url(#SVGID_00000169533778351693643060000013992255286776614026_);}
	.st3{fill:url(#SVGID_00000015328842564315334580000004671761141513381305_);}
</style>
<path class="st0" d="M227.8,43.2c-21.5-16.5-48.3-26.3-77.4-26.7c-0.6,0-1.1,0-1.7,0c-72,0-130.4,58.4-130.4,130.4c0,0.7,0,1.3,0,2
	c0,0.4,0,0.9,0,1.4c1.2,45.8,25.9,85.7,62.6,108.1c0.1,0,0.1,0.1,0.2,0.1c1,0.6,2,1.2,3.1,1.8l33.2-25.5
	c-67.4,23.6-110.6-49.6-60.8-94.8c0,0,7.7,10.1,14.1,12.1l4.3-4.9c-29.5-17.9-37.4-68.5,9.6-83.6c-37.7,43.7,25.6,75.1,51.3,23.1
	c16.6-33.5,60.7-43.1,92.3-43.2C227.9,43.3,227.9,43.2,227.8,43.2z M107.7,88.4c-9.6,0-17.3-7.8-17.3-17.3s7.8-17.3,17.3-17.3
	s17.3,7.8,17.3,17.3S117.3,88.4,107.7,88.4z"/>
<path class="st0" d="M279.1,145.2c0-1.1,0-2.2-0.1-3.4c0-1.1-0.1-2.2-0.2-3.3c0-0.6-0.1-1.1-0.1-1.7c-0.1-1-0.1-1.9-0.3-2.9
	c0-0.2,0-0.4-0.1-0.7c0-0.4-0.1-0.9-0.1-1.4c-0.1-1.1-0.3-2.2-0.4-3.3s-0.3-2.2-0.5-3.2c0-0.2-0.1-0.4-0.1-0.6
	c0-0.2-0.1-0.4-0.1-0.6c0,0,0,0,0,0c-7.5,5.3-22.1,17.6-34.1,32.3c-10.9,13.3-22.7,30.4-33.6,45.5c-14.9,20.6-37.4,43.3-60.7,57.1
	c-22.8,13.5-32.2,14.1-32.6,14.1c0.8,0.2,1.6,0.4,2.4,0.6c0.8,0.2,1.7,0.4,2.5,0.6c1.7,0.4,3.3,0.7,5,1c0.8,0.1,1.7,0.3,2.5,0.4
	c1.7,0.3,3.4,0.5,5.1,0.7c0.9,0.1,1.7,0.2,2.6,0.3l2.1,0.2c0.9,0.1,1.7,0.1,2.6,0.2c2.6,0.1,5.2,0.2,7.9,0.2c4.8,0,9.5-0.3,14.2-0.8
	c0.7-0.1,1.3-0.1,2-0.2c4.6-0.6,9.2-1.4,13.7-2.5c5.8-1.4,11.4-3.1,16.8-5.2c3-1.2,6-2.4,8.9-3.8c1.8-0.8,3.5-1.7,5.2-2.6
	c0.5-0.2,0.9-0.5,1.4-0.8c1.4-0.8,2.8-1.5,4.1-2.3c1.4-0.8,2.7-1.6,4-2.5c0,0,0,0,0,0c2.2-1.4,4.4-2.9,6.5-4.4c0,0,0,0,0,0
	c0.8-0.6,1.7-1.2,2.5-1.9c0,0,0,0,0,0c1.6-1.3,3.3-2.6,4.9-3.9c0,0,0,0,0,0c2.8-2.4,5.5-4.8,8.1-7.4c14-14,24.9-31.2,31.4-50.4
	c0.8-2.5,1.6-5,2.3-7.5c0.5-1.7,0.9-3.4,1.3-5.1c2.2-9.4,3.3-19.2,3.3-29.3C279.1,146.4,279.1,145.8,279.1,145.2L279.1,145.2z"/>
<linearGradient id="SVGID_1_" gradientUnits="userSpaceOnUse" x1="82.2331" y1="115.6725" x2="289.21" y2="115.6725" gradientTransform="matrix(1 0 0 -1 0 298)">
	<stop  offset="0.47" style="stop-color:#3e63dd"/>
	<stop  offset="1" style="stop-color:#2f62ff3c"/>
</linearGradient>
<path class="st1" d="M84.1,260.2c0,0,29.3,4.4,57.5-12c23.3-13.6,45.2-37.7,56.8-52.9c12.5-16.3,30.9-39.7,44.3-55.3
	c4-4.7,21.5-20.3,46.5-36.2c-20.5,4.4-51.1,20.9-68,37.7c-33.9,33.8-67.9,81-104,93.2C88.5,244,77.5,252.5,84.1,260.2z"/>
<linearGradient id="SVGID_00000171691112536156609130000011410477680771804807_" gradientUnits="userSpaceOnUse" x1="61.47" y1="179.9589" x2="309.91" y2="179.9589" gradientTransform="matrix(1 0 0 -1 0 298)">
	<stop  offset="0.35" style="stop-color:#3e63dd"/>
	<stop  offset="1" style="stop-color:#2f62ff3c"/>
</linearGradient>
<path style="fill:url(#SVGID_00000171691112536156609130000011410477680771804807_);" d="M309.9,83.3c0,0-55.3-12.8-102.3,14.2
	c-47,27-35.2,44.8-76.9,64.1c-26.3,12.2-53.1,7.6-69.3,2.6c0.7-5.4,2.5-9.9,5.9-13.6l7.4-3.5c9.6,5.8,27,8.4,39.3,3.1
	c46.1-19.6,36.8-62.8,104-79.2C276.4,56.7,309.9,83.3,309.9,83.3z"/>
<linearGradient id="SVGID_00000155838226351119756740000002900064789925667462_" gradientUnits="userSpaceOnUse" x1="61.2636" y1="159.4433" x2="309.92" y2="159.4433" gradientTransform="matrix(1 0 0 -1 0 298)">
	<stop  offset="0.45" style="stop-color:#3e63dd"/>
	<stop  offset="1" style="stop-color:#2f62ff3c"/>
</linearGradient>
<path style="fill:url(#SVGID_00000155838226351119756740000002900064789925667462_);" d="M309.9,83.3c0,0-23.2,2-41.1,7.5
	c-30.7,9.4-48.2,23.8-65.5,37.2c-27.2,21-69.6,68.2-104,69.3c-29.4,0.9-39.7-18.2-37.8-33.1c16.3,2.9,41.6,9.3,68-2.8
	c41.7-19.3,30.7-37.8,77.7-64.8C254.1,69.6,309.9,83.3,309.9,83.3L309.9,83.3z"/>
</svg>
